<?xml version="1.0" standalone="no"?>
<!DOCTYPE svg PUBLIC "-//W3C//DTD SVG 20010904//EN"
 "http://www.w3.org/TR/2001/REC-SVG-20010904/DTD/svg10.dtd">
<svg version="1.0" xmlns="http://www.w3.org/2000/svg"
 width="1050.000000pt" height="1050.000000pt" viewBox="0 0 1050.000000 1050.000000"
 preserveAspectRatio="xMidYMid meet">
<metadata>
Created by potrace 1.11, written by Peter Selinger 2001-2013
</metadata>
<g transform="translate(0.000000,1050.000000) scale(0.100000,-0.100000)"
fill="#000000" stroke="none">
<path d="M798 10375 c-3 -3 -68 -20 -144 -38 -137 -32 -140 -33 -230 -99 -63
-47 -104 -86 -134 -130 -24 -35 -50 -69 -57 -76 -23 -23 -36 -60 -58 -162 -2
-8 -13 -57 -24 -107 l-21 -93 0 -4427 c0 -2970 3 -4440 10 -4463 6 -19 12 -46
15 -60 3 -14 15 -68 28 -120 21 -85 30 -104 89 -185 51 -69 87 -105 154 -154
86 -64 88 -64 247 -103 l159 -38 2667 0 2667 0 130 31 c71 17 140 33 154 36
14 3 68 36 120 73 76 54 105 82 145 140 28 40 58 80 68 88 9 9 17 22 17 29 0
8 16 79 35 159 l35 145 0 999 0 1000 1398 0 1397 0 155 36 c85 19 166 43 179
52 13 9 38 27 55 40 17 12 48 33 68 47 20 13 68 69 107 123 60 84 73 110 87
173 9 41 24 101 33 134 14 54 16 245 18 1800 3 1680 2 1750 -23 1860 -1 6 -4
21 -7 35 -18 87 -47 182 -58 194 -8 8 -36 46 -63 86 -64 92 -202 196 -288 218
l-58 14 0 1024 0 1024 -31 132 c-16 73 -37 148 -45 166 -26 61 -125 191 -167
221 -23 17 -47 34 -52 38 -72 57 -95 67 -223 101 l-137 37 -4206 2 c-2313 2
-4208 1 -4211 -2z"/>
</g>
</svg>
